<svg class="clip-hex" version="1.1" xmlns="http://www.w3.org/2000/svg" xmlns:xlink="http://www.w3.org/1999/xlink" x="0px" y="0px" width="150px" height="168px" viewBox="0 0 150 168" xml:space="preserve">
    <defs>
        <clipPath id="hex-with-screen-1353988124">
             <path d="M143.407,129.599c3.061-1.767,5.565-6.105,5.565-9.639V47.426c0-3.534-2.504-7.872-5.565-9.639L80.591,1.52 c-3.061-1.767-8.07-1.767-11.13,0L6.645,37.787c-3.061,1.767-5.565,6.105-5.565,9.639v72.534c0,3.534,2.504,7.872,5.565,9.639 l62.816,36.267c3.061,1.767,8.07,1.767,11.13,0L143.407,129.599z"></path>
         </clipPath>
    </defs>
    <image clip-path="url(#hex-with-screen-1353988124)" height="100%" width="100%" xlink:href="http://localhost:8080/packages/redeaux/images/logo.png"></image>
    <path class="screen" fill="#3f3f3c" d="M143.407,129.599c3.061-1.767,5.565-6.105,5.565-9.639V47.426c0-3.534-2.504-7.872-5.565-9.639L80.591,1.52 c-3.061-1.767-8.07-1.767-11.13,0L6.645,37.787c-3.061,1.767-5.565,6.105-5.565,9.639v72.534c0,3.534,2.504,7.872,5.565,9.639 l62.816,36.267c3.061,1.767,8.07,1.767,11.13,0L143.407,129.599z"></path>
</svg>